<svg xmlns="http://www.w3.org/2000/svg" xml:space="preserve" width="2000" height="1500" data-id="lg_aM8u8zJ3khNCS0ivY2" data-version="1" viewBox="0 0 2000 1500"><path fill="#fff" stroke="transparent" d="M0 0h2000v1500H0z"/><g data-padding="20"><g transform="translate(-1219.73 -927.626)scale(2.17512)"><rect width="530" height="100.57" x="354.043" y="321.016" fill="none" rx="0" ry="0" transform="translate(470.89 400.5)"/><path fill="#5771ff" d="M855.503 780.65h-10.95v-12.64h11.66q3.38 0 5.83-1.33 2.45-1.34 3.78-3.78 1.34-2.45 1.34-5.65 0-3.39-1.34-5.83-1.33-2.45-3.78-3.74t-5.83-1.29h-11.66v-12.64h10.95q8.28 0 14.2 2.76 5.91 2.76 9.07 7.83t3.16 12.19v1.43q0 6.94-3.16 12.06-3.16 5.11-9.07 7.87-5.92 2.76-14.2 2.76m-9.17 18.6h-14.59v-65.5h14.59Zm58.2.01h-14.24v-48.77h11.3v20.92h-.26q0-10.33 4.4-15.93 4.41-5.61 12.77-5.61h1.87v12.28h-3.56q-5.87 0-9.08 3.16-3.2 3.16-3.2 9.12Zm45.58 1.69q-6.23 0-10.99-2.13-4.76-2.14-7.92-5.74-3.16-3.61-4.81-8.1-1.65-4.5-1.65-9.21v-1.78q0-4.9 1.65-9.39 1.65-4.5 4.76-8.06 3.12-3.56 7.79-5.65t10.63-2.09q7.84 0 13.22 3.52 5.39 3.51 8.23 9.16 2.85 5.65 2.85 12.33v4.81h-43.16v-8.1h34.53l-4.63 3.73q0-4.36-1.25-7.47-1.24-3.12-3.69-4.76-2.45-1.65-6.1-1.65-3.73 0-6.32 1.69-2.58 1.69-3.91 4.94-1.34 3.25-1.34 7.97 0 4.36 1.25 7.61 1.25 3.24 3.92 5.02t6.94 1.78q3.91 0 6.41-1.51 2.49-1.51 3.38-3.74h13.08q-1.07 4.9-4.18 8.73-3.12 3.82-7.83 5.96-4.72 2.13-10.86 2.13m47.43 16.11h-14.25v-66.57h11.31v21.09l-1.52-.08q.36-7.3 3.03-12.33t7.21-7.57q4.54-2.53 10.23-2.53 5.08 0 9.22 1.87t7.12 5.2q2.98 3.34 4.54 7.83 1.55 4.5 1.55 9.84v2.05q0 5.25-1.51 9.83t-4.41 7.97q-2.89 3.38-7.03 5.29-4.14 1.92-9.48 1.92-5.51 0-9.92-2.27-4.4-2.27-7.07-6.95-2.67-4.67-2.94-11.88l3.92 5.34Zm12.01-28.12q3.65 0 6.36-1.78 2.72-1.78 4.23-4.98 1.51-3.21 1.51-7.39t-1.51-7.3q-1.51-3.11-4.18-4.85t-6.41-1.74q-3.2 0-6.05 1.52-2.85 1.51-4.59 4.31-1.73 2.81-1.73 6.81v3.3q0 3.82 1.82 6.54 1.83 2.71 4.68 4.14 2.84 1.42 5.87 1.42m71.2-8.54h-37.47v-12.64h37.47Zm29.64 38.27q-3.56 0-7.3-.27t-6.85-.71v-12.02q3.11.45 6.89.76 3.79.31 6.9.31 5.79 0 9.39-1.34 3.6-1.33 5.3-4.05 1.69-2.71 1.69-6.98v-9.7l2.58-5.7q-.18 6.5-2.54 11.13-2.36 4.62-6.54 7.07t-9.97 2.45q-4.98 0-9.03-1.83-4.05-1.82-6.9-5.11-2.85-3.3-4.36-7.7-1.51-4.41-1.51-9.57v-2.05q0-5.16 1.6-9.61t4.63-7.74q3.02-3.29 7.21-5.12 4.18-1.82 9.25-1.82 5.88 0 10.19 2.58 4.32 2.58 6.81 7.56 2.49 4.99 2.67 12.02l-1.96.53v-21.27h11.31v42.99q0 8.99-3.21 14.51-3.2 5.51-9.74 8.09-6.55 2.59-16.51 2.59m4-31.07q3.29 0 5.96-1.46 2.67-1.47 4.23-4.23t1.56-6.68v-2.58q0-3.82-1.65-6.45-1.64-2.63-4.31-4.01-2.67-1.37-5.7-1.37-3.56 0-6.32 1.69t-4.27 4.71q-1.51 3.03-1.51 7.12 0 4.19 1.55 7.17 1.56 2.98 4.28 4.54 2.71 1.55 6.18 1.55m60.17 13.35q-6.23 0-11-2.13-4.76-2.14-7.92-5.74-3.16-3.61-4.8-8.1-1.65-4.5-1.65-9.21v-1.78q0-4.9 1.65-9.39 1.64-4.5 4.76-8.06 3.11-3.56 7.79-5.65 4.67-2.09 10.63-2.09 7.83 0 13.22 3.52 5.38 3.51 8.23 9.16t2.85 12.33v4.81h-43.17v-8.1h34.54l-4.63 3.73q0-4.36-1.25-7.47-1.24-3.12-3.69-4.76-2.45-1.65-6.1-1.65-3.74 0-6.32 1.69t-3.91 4.94q-1.34 3.25-1.34 7.97 0 4.36 1.25 7.61 1.24 3.24 3.91 5.02t6.95 1.78q3.91 0 6.4-1.51 2.5-1.51 3.39-3.74h13.08q-1.07 4.9-4.18 8.73-3.12 3.82-7.84 5.96-4.71 2.13-10.85 2.13m47.44-1.7h-14.24v-48.77h11.31v20.92h-.81q0-7.48 1.92-12.46 1.91-4.99 5.83-7.48 3.91-2.49 9.52-2.49h.62q8.55 0 13.04 5.56 4.5 5.56 4.5 16.87v27.85h-14.24V770.6q0-3.92-2.32-6.41-2.31-2.49-6.23-2.49-4 0-6.45 2.53-2.45 2.54-2.45 6.63Zm60.33 0h-14.24v-48.77h14.24Zm0-38.27h-20.73v-10.5h20.73Zm-8.72-15.3q-4 0-5.92-2.1-1.91-2.09-1.91-5.29 0-3.29 1.91-5.39 1.92-2.09 5.92-2.09 4.01 0 5.92 2.09 1.91 2.1 1.91 5.39 0 3.2-1.91 5.29-1.91 2.1-5.92 2.1m36.14 53.57h-14.24v-48.77h11.3v20.92h-.8q0-7.48 1.91-12.46 1.92-4.99 5.83-7.48 3.92-2.49 9.53-2.49h.62q8.54 0 13.04 5.56 4.49 5.56 4.49 16.87v27.85h-14.24V770.6q0-3.92-2.31-6.41-2.32-2.49-6.23-2.49-4.01 0-6.46 2.53-2.44 2.54-2.44 6.63Z"/><path fill="#5771ff" fill-rule="evenodd" d="M694.961 711.819c-1.36.082-1.256 2.142.124 2.06h6.51c1.4.02 1.4-2.06 0-2.06Zm9.888 0c-1.38.082-1.256 2.142.103 2.06h18.643c1.401.02 1.401-2.06 0-2.06Zm-1.73 4.12c-1.36.082-1.257 2.142.103 2.06h12.69c1.4.02 1.4-2.06 0-2.06Zm15.985 0c-1.38.082-1.277 2.142.103 2.06h5.274c1.4.02 1.4-2.06 0-2.06Zm54.467 1.504c-13.207.014-24.028 10.49-24.473 23.69a6.39 6.39 0 0 0-5.562-4.862c-.556-.062-.845-.041-1.42 0-3.133.412-5.687 2.864-5.687 6.098v.165h-4.51l-.29.04v-13.636a5.44 5.44 0 0 0-5.418-5.418h-34.71a5.44 5.44 0 0 0-5.418 5.418v17.304a5.44 5.44 0 0 0 5.417 5.397h18.788v71.358c0 3.81 2.842 7.004 6.468 7.004h50.202c3.626 0 6.47-3.193 6.47-7.004v-37.574h3.583v3.172c-.02 1.4 2.06 1.4 2.06 0v-3.172h3.131a2.678 2.678 0 0 0 2.555-3.276 2.68 2.68 0 0 0 2.307-2.595q0-.371-.103-.7c1.112-.33 1.936-1.34 1.936-2.534s-.824-2.225-1.936-2.534q.103-.33.103-.68c0-1.36-1.03-2.472-2.349-2.616v-6.736a24.514 24.514 0 0 0-11.124-46.31m-33.536.536a4.058 4.058 0 1 0 0 8.117 4.058 4.058 0 0 0 0-8.117m60.77 0a4.058 4.058 0 1 0 0 8.117 4.058 4.058 0 0 0 0-8.117m-27.234 1.525a22.454 22.454 0 0 1 9.682 42.786l-.618.268v7.89h-8.034v-7.767h-2.06v7.767h-8.034v-7.89l-.597-.29a22.495 22.495 0 0 1 9.682-42.785Zm-33.536.535c1.133 0 1.998.866 1.998 1.999a1.974 1.974 0 0 1-1.998 1.998 1.98 1.98 0 0 1-1.999-1.998c0-1.133.886-2 2-2m60.77 0c1.132 0 1.997.867 1.997 2a1.974 1.974 0 0 1-1.998 1.998 1.98 1.98 0 0 1-1.999-1.998c0-1.133.886-2 2-2m-28.326 1.855-.186.02c-9.62 1.237-17.18 9.065-18.045 18.829-.145 1.38 1.936 1.566 2.06.165a18.746 18.746 0 0 1 16.274-16.954c1.277-.123 1.194-2.06-.103-2.06m-80.958 3.688h34.69a3.33 3.33 0 0 1 3.358 3.358v17.304a3.33 3.33 0 0 1-3.358 3.337h-2.678a1.03 1.03 0 0 0-1.03 1.03v6.16l-5.995-6.84a1.03 1.03 0 0 0-.782-.35h-24.226a3.33 3.33 0 0 1-3.358-3.358v-17.304a3.33 3.33 0 0 1 3.358-3.337m27.295 2.595a1.03 1.03 0 0 0-.618.248l-12.854 10.67-5.336-6.097a1.03 1.03 0 0 0-1.792.597l-.515 6.036a1.03 1.03 0 0 0 .247.742l5.995 6.86c.37.41 1.03.453 1.442.102l13.616-11.31a1.03 1.03 0 0 0 .371-.7l.495-6.035a1.03 1.03 0 0 0-1.072-1.113m-1.174 3.379-.247 3.172-12.545 10.383-5.047-5.768.267-3.152 4.388 5.006c.371.412 1.01.473 1.442.123Zm25.194 6.468a4.326 4.326 0 0 1 4.223 5.315 1.03 1.03 0 0 0 .99 1.257h1.152q.557 4.944 2.926 9.167h-22.084v-3.708a5.36 5.36 0 0 0 1.607-3.832v-1.566l.29-.04h5.684a1.03 1.03 0 0 0 1.01-1.278 4.326 4.326 0 0 1 4.223-5.315m0 1.586a2.884 2.884 0 0 0-2.864 2.864c0 1.565 1.298 2.843 2.864 2.843a2.884 2.884 0 0 0 2.842-2.843 2.884 2.884 0 0 0-2.842-2.864m0 2.06c.432 0 .782.35.782.804 0 .432-.35.783-.782.783a.824.824 0 0 1-.804-.783c0-.453.35-.804.804-.804m-14.874 9.662v.515h-3.399v-.206h1.648q.927 0 1.751-.31m-15.614.31h2.904l1.792 2.04q-.35.679-.37 1.503v64.746a3.35 3.35 0 0 0 3.337 3.337h30.014a1.03 1.03 0 0 0 .762-.268l15.924-14.07a1.03 1.03 0 0 0 .35-.741v-22.763h1.03v3.172c-.02 1.4 2.06 1.4 2.06 0v-3.172h1.236v37.574c0 2.822-2.019 4.944-4.429 4.944h-50.202c-2.39 0-4.408-2.122-4.408-4.944Zm12.215 2.266h3.4v.886c0 .576.453 1.03 1.03 1.03h24.41a24.6 24.6 0 0 0 9.044 7.93v6.737c-1.319.144-2.37 1.256-2.37 2.616q0 .33.104.68c-1.113.309-1.937 1.339-1.937 2.534s.824 2.204 1.937 2.533q-.103.31-.103.7c0 1.34 1.03 2.432 2.307 2.596l-.082.618c0 1.442 1.194 2.658 2.657 2.658h.041v21.692l-12.648.02c-1.854 0-3.358 1.525-3.337 3.358l.04 10.712h-29.045a1.236 1.236 0 0 1-1.277-1.277v-64.334l4.037 4.594c.618.7 1.792.268 1.792-.68Zm-34.196 3.42a1.03 1.03 0 0 0-.72 1.77l3.75 3.709c.967 1.03 2.471-.474 1.441-1.442l-3.729-3.73a1.03 1.03 0 0 0-.742-.308m12.463 0a1.03 1.03 0 0 0-.7.31l-3.729 3.728c-1.03.968.474 2.472 1.442 1.442l3.73-3.708a1.03 1.03 0 0 0-.743-1.772m99.766.35a1.03 1.03 0 0 0-1.03 1.03v10.445c0 1.4 2.08 1.4 2.06 0v-10.424a1.03 1.03 0 0 0-1.03-1.05m-76.59 2.554c-1.319 0-2.41 1.092-2.41 2.39v10.279a2.427 2.427 0 0 0 2.41 2.41h10.258a2.427 2.427 0 0 0 2.41-2.41v-10.28c0-1.297-1.09-2.39-2.41-2.39Zm0 2.06h10.258q.33 0 .35.33v10.279q-.02.33-.35.35h-10.259q-.33-.02-.35-.35v-10.28q.02-.33.35-.33m16.995.619c-1.38.082-1.277 2.142.103 2.06h15.1c1.401.04 1.401-2.06 0-2.06h-15.182m-48.904 3.152a1.03 1.03 0 0 0-.7.309l-3.75 3.728c-1.01.99.494 2.472 1.463 1.463l3.728-3.73a1.03 1.03 0 0 0-.74-1.77m5.004 0a1.03 1.03 0 0 0-.7 1.77l3.708 3.73c.99 1.03 2.472-.474 1.463-1.442l-3.708-3.75a1.03 1.03 0 0 0-.763-.308M743 771.168c-1.36.06-1.256 2.12.124 2.06h15.1c1.4 0 1.4-2.081 0-2.06h-15.203m59.616.02a1.03 1.03 0 0 0-1.03 1.03v3.605c0 1.4 2.081 1.4 2.06 0v-3.584a1.03 1.03 0 0 0-1.03-1.05m-39.88 1.318h21.67q.556.04.577.597c0 .33-.227.577-.577.577h-21.712a.556.556 0 0 1-.577-.577q.041-.556.577-.597m-1.834 3.234h25.4c.33 0 .577.247.577.577s-.247.576-.577.576h-25.4a.556.556 0 0 1-.577-.576q.042-.536.577-.577m1.854 3.234h21.692q.556.04.577.577-.02.535-.577.577h-21.712a.556.556 0 0 1-.577-.577q.041-.536.577-.577m-37.492.412c-1.38.082-1.278 2.142.082 2.06h32.878c1.4.04 1.4-2.06 0-2.06Zm39.716 2.802h17.243c.33 0 .576.247.576.576q-.04.557-.576.598H764.94a.556.556 0 0 1-.597-.598q.041-.535.597-.576m-39.737 5.459c-1.36.06-1.257 2.12.103 2.06h32.878c1.4 0 1.4-2.081 0-2.06Zm-33.372.164a1.03 1.03 0 0 0-.989 1.05v10.425c-.02 1.4 2.06 1.4 2.06 0v-10.424a1.03 1.03 0 0 0-1.05-1.03m33.372 8.075c-1.36.062-1.257 2.122.103 2.06h32.877c1.401 0 1.401-2.08 0-2.06Zm53.354 1.813c-1.4 0-1.4 2.08 0 2.06h6.53c1.38.02 1.38-2.06 0-2.06Zm9.888 0c-1.4 0-1.4 2.08 0 2.06h18.622c1.4.02 1.4-2.06 0-2.06Zm-96.614 3.626a1.03 1.03 0 0 0-.99 1.05v3.605c-.02 1.38 2.06 1.38 2.06 0v-3.605a1.03 1.03 0 0 0-1.05-1.03m94.884.495c-1.4 0-1.4 2.08 0 2.06h12.67c1.4.02 1.4-2.06 0-2.06Zm15.965 0c-1.38 0-1.38 2.08 0 2.06h5.294c1.38.02 1.38-2.06 0-2.06Zm-77.456 2.307c-1.38.062-1.277 2.122.082 2.06h15.74c1.4 0 1.4-2.08 0-2.06h-15.843m38.048 5.047-12.154 10.774-.06-9.476a1.236 1.236 0 0 1 1.276-1.278Zm-63.097 5.356c-2.225 0-4.059 1.854-4.059 4.058a4.058 4.058 0 1 0 4.06-4.058m79.061 1.648a1.03 1.03 0 0 0-.72 1.75l3.728 3.75c.99 1.01 2.472-.494 1.463-1.463l-3.729-3.728a1.03 1.03 0 0 0-.742-.33m12.463 0a1.03 1.03 0 0 0-.7.31l-3.75 3.707c-1.009.989.495 2.472 1.463 1.483l3.73-3.75a1.03 1.03 0 0 0-.743-1.77m-91.525.412c1.112 0 1.998.885 1.998 1.998a1.974 1.974 0 0 1-1.998 1.998 1.98 1.98 0 0 1-1.999-1.998c0-1.113.886-1.998 2-1.998m82.79 8.322a1.03 1.03 0 0 0-.72.309l-3.709 3.729c-1.03.968.474 2.472 1.442 1.442l3.73-3.708a1.03 1.03 0 0 0-.743-1.772m5.006 0a1.03 1.03 0 0 0-.72 1.772l3.748 3.708c.968 1.03 2.472-.474 1.442-1.442l-3.708-3.73a1.03 1.03 0 0 0-.762-.308"/></g><path fill="transparent" stroke="transparent" stroke-width="2.242" d="M250 616.592h1500v266.816H250z"/></g></svg>